<mxfile host="app.diagrams.net" modified="2021-12-24T08:01:09.043Z" agent="5.0 (Macintosh; Intel Mac OS X 10_15_7) AppleWebKit/537.36 (KHTML, like Gecko) Chrome/96.0.4664.110 Safari/537.36" etag="xByoB2iz0vuhsl1Kl828" version="16.0.0" type="github">
  <diagram id="gsf49He13MfOLdli_iRr" name="第 1 页">
    <mxGraphModel dx="1584" dy="882" grid="0" gridSize="10" guides="1" tooltips="1" connect="1" arrows="1" fold="1" page="1" pageScale="1" pageWidth="827" pageHeight="1169" math="0" shadow="1">
      <root>
        <mxCell id="0" />
        <mxCell id="1" parent="0" />
        <mxCell id="og5dSPM_AXGmNLmmMvEW-1" value="资金账户&lt;br&gt;capital_account" style="rounded=1;whiteSpace=wrap;html=1;fillColor=#3399FF;" vertex="1" parent="1">
          <mxGeometry x="362" y="353" width="120" height="60" as="geometry" />
        </mxCell>
        <mxCell id="og5dSPM_AXGmNLmmMvEW-5" style="edgeStyle=orthogonalEdgeStyle;rounded=0;orthogonalLoop=1;jettySize=auto;html=1;entryX=0;entryY=0.5;entryDx=0;entryDy=0;" edge="1" parent="1" source="og5dSPM_AXGmNLmmMvEW-2" target="og5dSPM_AXGmNLmmMvEW-4">
          <mxGeometry relative="1" as="geometry" />
        </mxCell>
        <mxCell id="og5dSPM_AXGmNLmmMvEW-2" value="结算单&amp;amp;结算明细" style="rounded=1;whiteSpace=wrap;html=1;fillColor=#3399FF;" vertex="1" parent="1">
          <mxGeometry x="172" y="463" width="120" height="60" as="geometry" />
        </mxCell>
        <mxCell id="og5dSPM_AXGmNLmmMvEW-6" style="edgeStyle=orthogonalEdgeStyle;rounded=0;orthogonalLoop=1;jettySize=auto;html=1;entryX=1;entryY=0.5;entryDx=0;entryDy=0;" edge="1" parent="1" source="og5dSPM_AXGmNLmmMvEW-3" target="og5dSPM_AXGmNLmmMvEW-4">
          <mxGeometry relative="1" as="geometry" />
        </mxCell>
        <mxCell id="og5dSPM_AXGmNLmmMvEW-3" value="提现单" style="rounded=1;whiteSpace=wrap;html=1;fillColor=#3399FF;" vertex="1" parent="1">
          <mxGeometry x="562" y="463" width="120" height="60" as="geometry" />
        </mxCell>
        <mxCell id="og5dSPM_AXGmNLmmMvEW-7" style="edgeStyle=orthogonalEdgeStyle;rounded=0;orthogonalLoop=1;jettySize=auto;html=1;entryX=0.5;entryY=1;entryDx=0;entryDy=0;" edge="1" parent="1" source="og5dSPM_AXGmNLmmMvEW-4" target="og5dSPM_AXGmNLmmMvEW-1">
          <mxGeometry relative="1" as="geometry" />
        </mxCell>
        <mxCell id="og5dSPM_AXGmNLmmMvEW-4" value="资金账户流水" style="rounded=1;whiteSpace=wrap;html=1;fillColor=#3399FF;" vertex="1" parent="1">
          <mxGeometry x="362" y="463" width="120" height="60" as="geometry" />
        </mxCell>
        <mxCell id="og5dSPM_AXGmNLmmMvEW-18" style="edgeStyle=orthogonalEdgeStyle;rounded=0;orthogonalLoop=1;jettySize=auto;html=1;entryX=0.5;entryY=1;entryDx=0;entryDy=0;dashed=1;curved=1;startArrow=classic;startFill=1;exitX=1;exitY=0.5;exitDx=0;exitDy=0;" edge="1" parent="1" source="og5dSPM_AXGmNLmmMvEW-8" target="og5dSPM_AXGmNLmmMvEW-1">
          <mxGeometry relative="1" as="geometry">
            <Array as="points">
              <mxPoint x="522" y="683" />
              <mxPoint x="522" y="413" />
            </Array>
          </mxGeometry>
        </mxCell>
        <mxCell id="og5dSPM_AXGmNLmmMvEW-8" value="见证宝子账户&lt;br&gt;ejzb_account" style="rounded=0;whiteSpace=wrap;html=1;fillColor=#FF9933;" vertex="1" parent="1">
          <mxGeometry x="362" y="653" width="120" height="60" as="geometry" />
        </mxCell>
        <mxCell id="og5dSPM_AXGmNLmmMvEW-12" style="edgeStyle=orthogonalEdgeStyle;rounded=0;orthogonalLoop=1;jettySize=auto;html=1;entryX=0.5;entryY=0;entryDx=0;entryDy=0;" edge="1" parent="1" source="og5dSPM_AXGmNLmmMvEW-10" target="og5dSPM_AXGmNLmmMvEW-11">
          <mxGeometry relative="1" as="geometry" />
        </mxCell>
        <mxCell id="og5dSPM_AXGmNLmmMvEW-16" style="edgeStyle=orthogonalEdgeStyle;rounded=0;orthogonalLoop=1;jettySize=auto;html=1;entryX=0.5;entryY=1;entryDx=0;entryDy=0;curved=1;" edge="1" parent="1" source="og5dSPM_AXGmNLmmMvEW-10" target="og5dSPM_AXGmNLmmMvEW-8">
          <mxGeometry relative="1" as="geometry" />
        </mxCell>
        <mxCell id="og5dSPM_AXGmNLmmMvEW-19" style="edgeStyle=orthogonalEdgeStyle;curved=1;rounded=0;orthogonalLoop=1;jettySize=auto;html=1;entryX=0.5;entryY=1;entryDx=0;entryDy=0;dashed=1;startArrow=classic;startFill=1;" edge="1" parent="1" source="og5dSPM_AXGmNLmmMvEW-10" target="og5dSPM_AXGmNLmmMvEW-2">
          <mxGeometry relative="1" as="geometry" />
        </mxCell>
        <mxCell id="og5dSPM_AXGmNLmmMvEW-10" value="冻结充值明细" style="rounded=0;whiteSpace=wrap;html=1;fillColor=#FF9933;" vertex="1" parent="1">
          <mxGeometry x="172" y="748" width="120" height="60" as="geometry" />
        </mxCell>
        <mxCell id="og5dSPM_AXGmNLmmMvEW-13" style="edgeStyle=orthogonalEdgeStyle;rounded=0;orthogonalLoop=1;jettySize=auto;html=1;entryX=0.5;entryY=1;entryDx=0;entryDy=0;curved=1;" edge="1" parent="1" source="og5dSPM_AXGmNLmmMvEW-11" target="og5dSPM_AXGmNLmmMvEW-8">
          <mxGeometry relative="1" as="geometry" />
        </mxCell>
        <mxCell id="og5dSPM_AXGmNLmmMvEW-11" value="分账明细" style="rounded=0;whiteSpace=wrap;html=1;fillColor=#FF9933;" vertex="1" parent="1">
          <mxGeometry x="172" y="853" width="120" height="60" as="geometry" />
        </mxCell>
        <mxCell id="og5dSPM_AXGmNLmmMvEW-15" style="edgeStyle=orthogonalEdgeStyle;rounded=0;orthogonalLoop=1;jettySize=auto;html=1;entryX=0.5;entryY=1;entryDx=0;entryDy=0;curved=1;" edge="1" parent="1" source="og5dSPM_AXGmNLmmMvEW-14" target="og5dSPM_AXGmNLmmMvEW-8">
          <mxGeometry relative="1" as="geometry" />
        </mxCell>
        <mxCell id="og5dSPM_AXGmNLmmMvEW-17" style="edgeStyle=orthogonalEdgeStyle;rounded=0;orthogonalLoop=1;jettySize=auto;html=1;entryX=0.5;entryY=1;entryDx=0;entryDy=0;dashed=1;startArrow=classic;startFill=1;" edge="1" parent="1" source="og5dSPM_AXGmNLmmMvEW-14" target="og5dSPM_AXGmNLmmMvEW-3">
          <mxGeometry relative="1" as="geometry" />
        </mxCell>
        <mxCell id="og5dSPM_AXGmNLmmMvEW-14" value="提现明细" style="rounded=0;whiteSpace=wrap;html=1;fillColor=#FF9933;" vertex="1" parent="1">
          <mxGeometry x="562" y="748" width="120" height="60" as="geometry" />
        </mxCell>
        <mxCell id="og5dSPM_AXGmNLmmMvEW-20" value="客户在尽微的资金账户体系" style="swimlane;fillColor=#3399FF;" vertex="1" parent="1">
          <mxGeometry x="133" y="323" width="579" height="270" as="geometry" />
        </mxCell>
        <mxCell id="og5dSPM_AXGmNLmmMvEW-21" value="客户在平安银行的见证宝账户体系" style="swimlane;fillColor=#FF9933;" vertex="1" parent="1">
          <mxGeometry x="133" y="623" width="579" height="310" as="geometry" />
        </mxCell>
      </root>
    </mxGraphModel>
  </diagram>
</mxfile>
